<svg xmlns="http://www.w3.org/2000/svg" width="600" height="600" viewBox="0 0 600 600"><path d="M0 0h600v600H0z"/><path d="M186 447.5V154h132.1c18.7 0 35.6 4.1 50.7 12.2 15.4 8.1 27.4 19.3 36.1 33.5 8.7 14 13 29.9 13 47.8s-4.3 35.1-13 49.9c-8.7 14.5-20.5 26-35.6 34.4-15.1 8.4-32.1 12.6-51.1 12.6h-64.1v103.1h-67.9zm162.7 0L274.1 315l72.9-10.5 83 143h-81.3zm-94.8-157.7h57.9c7.3 0 13.6-1.5 18.9-4.6 5.6-3.4 9.8-8 12.6-13.8 3.1-5.9 4.6-12.6 4.6-20.1s-1.7-14.1-5-19.7c-3.4-5.9-8.2-10.3-14.7-13.4-6.1-3.1-13.7-4.6-22.6-4.6H254v76.3z" fill="#fff"/></svg>